<svg viewBox="0 0 589 80" version="1.1" xmlns="http://www.w3.org/2000/svg" xmlns:xlink="http://www.w3.org/1999/xlink">
    <title>Harvard Business School Logo</title>
    <g id="Page-1" stroke="none" stroke-width="1" fill="none" fill-rule="evenodd">
        <g id="shield" fill-rule="nonzero">
            <g id="web_redshield_whitename_rgb">
                <g id="Group" transform="translate(94.000000, 0.000000)" fill="#FFFFFF">
                    <polygon id="Shape" points="0.3 12.3 3.6 12.3 3.6 17 8.5 17 8.5 12.3 11.8 12.3 11.8 25.4 8.5 25.4 8.5 19.9 3.6 19.9 3.6 25.4 0.3 25.4"></polygon>
                    <path d="M27.4,12.3 L30.8,12.3 L35.8,25.4 L32.3,25.4 L31.6,23.3 L26.8,23.3 L26.1,25.4 L22.6,25.4 L27.4,12.3 Z M30.8,21 L29.2,15.6 L29.2,15.6 L27.6,21 L30.8,21 Z" id="Shape"></path>
                    <path d="M46.6,12.3 L53.2,12.3 C56.1,12.3 58,13.7 58,16.6 C58,18.3 56.9,19.7 55.3,20.1 L58.3,25.4 L54.6,25.4 L52,20.7 L49.9,20.7 L49.9,25.4 L46.6,25.4 L46.6,12.3 L46.6,12.3 Z M49.8,18.3 L52.8,18.3 C53.8,18.3 54.5,17.7 54.5,16.5 C54.5,15.3 53.8,14.8 52.8,14.7 L49.8,14.7 L49.8,18.3 Z" id="Shape"></path>
                    <polygon id="Shape" points="68.2 12.3 71.7 12.3 74.4 21.7 74.4 21.7 77.2 12.3 80.6 12.3 76.1 25.4 72.6 25.4"></polygon>
                    <path d="M93.7,12.3 L97.1,12.3 L102.1,25.4 L98.6,25.4 L97.9,23.3 L93.1,23.3 L92.4,25.4 L88.9,25.4 L93.7,12.3 Z M97.1,21 L95.5,15.6 L95.5,15.6 L93.8,21 L97.1,21 Z" id="Shape"></path>
                    <path d="M112.9,12.3 L119.5,12.3 C122.4,12.3 124.3,13.7 124.3,16.6 C124.3,18.3 123.2,19.7 121.6,20.1 L124.6,25.4 L120.9,25.4 L118.3,20.7 L116.2,20.7 L116.2,25.4 L112.9,25.4 L112.9,12.3 L112.9,12.3 Z M116.2,18.3 L119.2,18.3 C120.2,18.3 121,17.7 121,16.5 C121,15.3 120.3,14.8 119.2,14.7 L116.2,14.7 L116.2,18.3 Z" id="Shape"></path>
                    <path d="M135.6,12.3 L140.7,12.3 C144.7,12.3 147.4,14.2 147.4,18.9 C147.4,23.6 144.7,25.5 140.7,25.5 L135.6,25.5 L135.6,12.3 Z M138.9,22.7 L140.8,22.7 C143.2,22.7 144.1,21 144.1,18.9 C144.1,16.8 143.2,15.1 140.7,15.1 L138.8,15.1 L138.8,22.7 L138.9,22.7 Z" id="Shape"></path>
                    <path d="M178.4,12.3 L184.8,12.3 C187.5,12.3 189.2,13.2 189.2,15.7 C189.2,17.4 188.2,18.3 186.5,18.7 L186.5,18.7 C188.3,18.8 189.7,19.8 189.7,21.7 C189.7,24.4 187.7,25.4 184.3,25.4 L178.3,25.4 L178.3,12.3 L178.4,12.3 Z M181.6,23 L184.3,23 C186,23 186.5,22.3 186.5,21.5 C186.5,20.4 186.1,19.9 184.9,19.9 L181.6,19.9 L181.6,23 L181.6,23 Z M181.6,17.5 L184.3,17.5 C185.4,17.5 186,17.1 186,16.1 C186,15 185.4,14.7 184.3,14.7 L181.6,14.7 L181.6,17.5 Z" id="Shape"></path>
                    <path d="M212.3,20.9 C212.3,24.5 209.3,25.8 206.7,25.8 C204.2,25.8 201.2,24.5 201.2,20.9 L201.2,12.4 L204.5,12.4 L204.5,20.7 C204.5,22.2 205.1,23.3 206.8,23.3 C208.5,23.3 209.1,22.2 209.1,20.7 L209.1,12.4 L212.4,12.4 L212.4,20.9 L212.3,20.9 Z" id="Shape"></path>
                    <path d="M225.7,21.5 C226.8,22.5 227.9,23.1 229.5,23.1 C230.4,23.1 231.9,22.7 231.9,21.6 C231.9,20.9 231.4,20.6 230.4,20.4 L227.7,20 C225.3,19.6 223.9,18.3 223.9,16.4 C223.9,13.2 226.5,11.9 229.3,11.9 C231.5,11.9 233.6,12.8 235.1,14.4 L232.6,16.2 C231.7,15.1 230.5,14.5 229.1,14.5 C228.3,14.5 227.2,15 227.2,15.8 C227.2,16.5 227.8,16.8 229,17.1 L230.3,17.3 C232.9,17.7 235.1,18.5 235.1,21 C235.1,24.9 231.5,25.7 229.1,25.7 C226.9,25.7 225,25 223.2,23 L225.7,21.5 Z" id="Shape"></path>
                    <polygon id="Shape" points="246.5 12.3 249.8 12.3 249.8 25.4 246.5 25.4"></polygon>
                    <polygon id="Shape" points="261.8 12.3 265.1 12.3 269.9 20.7 269.9 20.7 269.9 12.3 272.9 12.3 272.9 25.4 269.6 25.4 264.8 17.1 264.8 17.1 264.8 25.4 261.8 25.4"></polygon>
                    <polygon id="Shape" points="285 25.5 285 12.3 294.6 12.3 294.6 14.8 288.2 14.8 288.2 17.2 294.1 17.2 294.1 19.7 288.2 19.7 288.2 22.8 295.1 22.8 295.1 25.3 285 25.3"></polygon>
                    <path d="M307.7,21.5 C308.8,22.5 309.9,23.1 311.5,23.1 C312.4,23.1 314,22.7 314,21.6 C314,20.9 313.5,20.6 312.5,20.4 L309.8,20 C307.4,19.6 306,18.3 306,16.4 C306,13.2 308.6,11.9 311.4,11.9 C313.6,11.9 315.7,12.8 317.2,14.4 L314.7,16.2 C313.8,15.1 312.6,14.5 311.2,14.5 C310.4,14.5 309.3,15 309.3,15.8 C309.3,16.5 309.9,16.8 311.1,17.1 L312.3,17.3 C314.9,17.7 317.1,18.5 317.1,21 C317.1,24.9 313.5,25.7 311.1,25.7 C308.9,25.7 307,25 305.2,23 L307.7,21.5 Z" id="Shape"></path>
                    <path d="M329.8,21.5 C330.9,22.5 332,23.1 333.6,23.1 C334.5,23.1 336.1,22.7 336.1,21.6 C336.1,20.9 335.6,20.6 334.6,20.4 L331.9,20 C329.5,19.6 328.1,18.3 328.1,16.4 C328.1,13.2 330.7,11.9 333.5,11.9 C335.7,11.9 337.8,12.8 339.3,14.4 L336.8,16.2 C335.9,15.1 334.7,14.5 333.3,14.5 C332.5,14.5 331.4,15 331.4,15.8 C331.4,16.5 332,16.8 333.2,17.1 L334.5,17.3 C337.1,17.7 339.3,18.5 339.3,21 C339.3,24.9 335.7,25.7 333.3,25.7 C331.1,25.7 329.2,25 327.4,23 L329.8,21.5 Z" id="Shape"></path>
                    <path d="M371.5,21.5 C372.6,22.5 373.7,23.1 375.3,23.1 C376.2,23.1 377.7,22.7 377.7,21.6 C377.7,20.9 377.2,20.6 376.2,20.4 L373.5,20 C371.1,19.6 369.7,18.3 369.7,16.4 C369.7,13.2 372.3,11.9 375.1,11.9 C377.3,11.9 379.4,12.8 380.9,14.4 L378.4,16.2 C377.5,15.1 376.3,14.5 374.9,14.5 C374.1,14.5 373,15 373,15.8 C373,16.5 373.6,16.8 374.8,17.1 L376.1,17.3 C378.7,17.7 380.9,18.5 380.9,21 C380.9,24.9 377.3,25.7 374.9,25.7 C372.7,25.7 370.8,25 369,23 L371.5,21.5 Z" id="Shape"></path>
                    <path d="M401,16.7 C400.5,15.5 399.4,14.7 398.3,14.7 C396.5,14.7 395.1,15.9 395.1,18.9 C395.1,20.8 395.9,23.1 398.5,23.1 C399.4,23.1 400.7,22.4 401.2,21.3 L403.8,22.6 C402.7,24.6 400.7,26 398.5,26 C394.3,26 391.9,22.8 391.9,19.1 C391.9,15.4 394.2,12.2 398.3,12.2 C400.9,12.2 402.6,13.5 403.8,15.6 L401,16.7 Z" id="Shape"></path>
                    <polygon id="Shape" points="414.8 12.3 418.1 12.3 418.1 17 423 17 423 12.3 426.3 12.3 426.3 25.4 423 25.4 423 19.9 418.1 19.9 418.1 25.4 414.8 25.4"></polygon>
                    <path d="M444.3,25.8 C440.1,25.8 437.7,22.6 437.7,18.9 C437.7,15.2 440.1,12 444.3,12 C448.5,12 450.9,15.2 450.9,18.9 C451,22.6 448.5,25.8 444.3,25.8 Z M444.3,14.7 C442.4,14.7 440.9,15.9 440.9,18.9 C440.9,20.8 441.7,23.1 444.3,23.1 C446.7,23.1 447.6,21 447.6,18.9 C447.7,16.8 446.8,14.7 444.3,14.7 Z" id="Shape"></path>
                    <path d="M468.5,25.8 C464.3,25.8 461.9,22.6 461.9,18.9 C461.9,15.2 464.4,12 468.5,12 C472.7,12 475.1,15.2 475.1,18.9 C475.1,22.6 472.7,25.8 468.5,25.8 Z M468.5,14.7 C466.6,14.7 465.1,15.9 465.1,18.9 C465.1,20.8 465.9,23.1 468.5,23.1 C470.9,23.1 471.9,21 471.9,18.9 C471.9,16.8 470.9,14.7 468.5,14.7 Z" id="Shape"></path>
                    <polygon id="Shape" points="486.6 12.3 489.9 12.3 489.9 22.7 495 22.7 495 25.5 486.6 25.5 486.6 12.3"></polygon>
                    <rect id="Rectangle-path" x="354" y="0.3" width="1.6" height="36.9"></rect>
                    <rect id="Rectangle-path" x="161.7" y="0.3" width="1.6" height="36.9"></rect>
                </g>
                <g id="Group">
                    <rect id="Rectangle-path" fill="#FFFFFF" x="1.1" y="1.3" width="65" height="19.7"></rect>
                    <path d="M66.2,21.8 C66.2,46.9 52.7,66.5 33.7,78.6 C14.7,66.5 1.2,47 1.2,21.8 L66.2,21.8 L66.2,21.8 Z" id="Shape" fill="#FFFFFF"></path>
                    <g id="Shape" fill="#A41034">
                        <path d="M14.7,12.8 C14.6,12.9 14.6,13.1 14.8,13.1 C15,13.1 15.1,13.1 15.3,13.1 L17.3,13.1 C17.5,13.1 17.8,13.3 17.8,12.9 C17.8,12.6 17.8,12.2 17.8,11.9 C17.8,11.4 17.5,11.3 17.4,11.9 C17.3,12.3 17.2,12.7 16.5,12.7 L16.1,12.7 C15.9,12.7 15.9,12.6 15.8,12.5 C15.8,12.1 15.8,11.5 15.8,10.7 C15.8,10.5 15.9,10.5 16.1,10.5 C16.3,10.5 16.4,10.5 16.4,10.7 C16.5,10.9 16.9,11.3 16.9,10.7 L16.9,10 C16.9,9.4 16.6,9.8 16.5,10 C16.4,10.2 16.4,10.2 16.1,10.2 C15.9,10.2 15.8,10.2 15.8,9.9 C15.8,9.6 15.8,9 15.8,8.3 C15.8,8.2 15.9,8.1 16,8.1 L16.4,8.1 C17.1,8.1 17.1,8.5 17.2,9 C17.3,9.4 17.6,9.3 17.6,9 C17.6,8.7 17.6,8.3 17.6,8 C17.6,7.7 17.3,7.8 17.1,7.8 L15.2,7.8 C15,7.8 14.9,7.8 14.7,7.8 C14.5,7.8 14.5,7.9 14.6,8.1 C14.7,8.2 14.8,8.2 14.8,8.6 L14.8,12.3 C14.9,12.6 14.8,12.7 14.7,12.8 Z"></path>
                        <path d="M12.3,7.8 C12.1,7.8 12.1,7.8 11.9,7.8 C11.7,7.8 11.7,7.9 11.8,8.1 C11.9,8.2 12,8.2 11.9,8.6 L11.1,11.2 C11,11.5 10.8,11.6 10.7,11.2 L10.2,8.6 C10.1,8.2 10.2,8.2 10.3,8.1 C10.4,8 10.3,7.8 10.1,7.8 C9.9,7.8 9.8,7.8 9.6,7.8 C9.4,7.8 9.3,7.8 9.1,7.8 C8.9,7.8 8.9,7.9 9,8.1 C9.1,8.2 9.2,8.2 9.3,8.6 L10.2,12.6 C10.3,12.9 10.3,13.2 10.6,13.2 C10.8,13.2 10.9,13 11,12.6 L12.2,8.5 C12.4,8.1 12.4,8.1 12.5,8 C12.6,7.9 12.6,7.7 12.5,7.7 C12.5,7.8 12.4,7.8 12.3,7.8 Z"></path>
                        <path d="M31.3,10.6 C31.2,10.5 31.2,10.5 31.2,10.4 C31.2,10.3 31.2,10.2 31.4,10.2 C31.8,10 32.2,9.6 32.2,9 C32.2,8.2 31.7,7.7 30.4,7.7 C30.1,7.7 29.4,7.7 29.2,7.7 C29,7.7 28.8,7.8 28.9,8 C29,8.1 29.1,8.2 29.1,8.4 C29.1,8.6 29.1,11.9 29.1,12.3 C29.1,12.7 29,12.7 28.9,12.8 C28.8,12.9 28.8,13.1 29,13.1 C29.2,13.1 29.4,13.1 29.5,13.1 C29.7,13.1 29.9,13.1 30.1,13.1 C30.3,13.1 30.3,12.9 30.2,12.8 C30.1,12.7 30,12.7 30,12.3 L30,10.5 L30.3,10.5 C30.4,10.7 31.4,12.8 31.5,12.9 C31.6,13 31.6,13 31.6,13 C31.6,13 32.2,13 32.3,13 C32.6,13 32.6,12.8 32.5,12.8 C32.4,12.7 32.4,12.7 32.2,12.5 C32.2,12.4 31.3,10.7 31.3,10.6 Z M30.4,10.1 C30.1,10.1 30,10 30,9.8 L30,9 L30,8.4 C30,8 30.3,7.9 30.6,8 C30.9,8 31.3,8.2 31.3,9 C31.3,10 30.7,10.1 30.4,10.1 Z"></path>
                        <path d="M35.1,8.1 C35.2,8.2 35.3,8.2 35.3,8.6 L35.3,12.3 C35.3,12.7 35.3,12.7 35.1,12.8 C35,12.9 35,13.1 35.2,13.1 C35.4,13.1 35.5,13.1 35.7,13.1 C35.9,13.1 36,13.1 36.2,13.1 C36.4,13.1 36.4,13 36.3,12.8 C36.2,12.7 36.1,12.7 36.1,12.3 L36.1,8.6 C36.1,8.2 36.1,8.2 36.3,8.1 C36.4,8 36.4,7.8 36.2,7.8 C36,7.8 35.9,7.8 35.7,7.8 C35.5,7.8 35.4,7.8 35.2,7.8 C35,7.8 35,8 35.1,8.1 Z"></path>
                        <path d="M0,0.2 L0,22.9 L0.1,22.9 C0.5,46.1 12.1,66.2 33.1,79.5 L33.7,79.9 L34.3,79.5 C55.2,66.2 66.9,46.1 67.3,22.9 L67.4,22.9 L67.4,0.2 L0,0.2 Z M48.6,31.5 C48.9,32.1 49.4,32.8 49.9,33.3 C50.2,33.6 50.1,33.8 50,34 C49.9,34.2 49.5,34.6 49.4,34.7 C49.3,34.8 48.8,35.1 48.4,34.4 C48.1,33.8 47.8,32.5 47.8,32 C47.8,31.5 47.4,31.6 47.4,32 C47.4,32.2 47.4,32.3 47.4,32.8 C47.4,33.3 47.6,34 47.8,34.7 C48.1,35.4 47.8,35.4 47.6,35.5 C47.4,35.6 47.2,35.6 46.9,35.6 C46.5,35.6 46.3,35.5 46.2,35.5 C46,35.4 45.8,35.4 46,34.7 C46.3,34 46.4,33.3 46.4,32.8 C46.4,32.3 46.4,32.2 46.4,32 C46.4,31.6 46,31.5 46,32 C46,32.5 45.7,33.7 45.4,34.4 C45.1,35.1 44.6,34.8 44.4,34.7 C44.3,34.6 43.9,34.2 43.8,34 C43.7,33.8 43.6,33.6 43.9,33.3 C44.3,32.9 44.9,32.1 45.2,31.5 C45.5,30.9 45.2,30.7 44.9,31.2 C44.5,31.8 44,32.3 43.6,32.6 C43.4,32.8 43.3,32.8 43.1,32.6 C42.9,32.3 42.6,31.8 42.7,31.2 C42.8,30.6 43,30.6 43.3,30.6 C43.5,30.6 44.2,30.6 44.7,30.2 C45.3,29.6 45.9,28.8 46.2,27.3 C46.4,26.5 46.7,26.3 47.1,26.3 C47.5,26.3 47.9,26.5 48,27.3 C48.3,28.9 48.6,29.5 49.3,30.1 C49.8,30.5 50.4,30.5 50.8,30.5 C51,30.5 51.3,30.6 51.4,31.2 C51.5,31.8 51.2,32.4 51,32.6 C50.8,32.9 50.7,32.8 50.5,32.6 C50.1,32.3 49.6,31.7 49.2,31.2 C48.6,30.7 48.4,31 48.6,31.5 Z M41.8,28.2 C41.8,30.1 40.2,31.7 38.3,31.7 C37.7,31.7 37.1,31.5 36.6,31.2 C37,31.7 37.2,32.4 37.2,33.1 C37.2,35 35.6,36.6 33.7,36.6 C31.8,36.6 30.2,35 30.2,33.1 C30.2,32.4 30.4,31.7 30.8,31.2 C30.2,31.6 29.5,31.9 28.8,31.9 C26.9,31.9 25.3,30.3 25.3,28.4 C25.3,27.7 25.5,27.1 25.8,26.6 C25.2,27 24.6,27.2 23.9,27.2 C22,27.2 20.4,25.6 20.4,23.7 C20.4,23.4 20.4,23.2 20.5,23 L21.6,23 L21.6,23 L45.4,23 L45.4,23 L46.5,23 C46.6,23.2 46.6,23.4 46.6,23.7 C46.6,25.6 45.2,27.2 43.3,27.2 C42.6,27.2 42.2,27.2 41.6,26.8 C41.7,27.1 41.8,27.6 41.8,28.2 Z M35.4,44.5 C35.7,45.1 36.2,45.8 36.7,46.3 C37,46.6 36.9,46.8 36.8,47 C36.7,47.2 36.3,47.6 36.2,47.7 C36.1,47.8 35.6,48.1 35.2,47.4 C34.9,46.8 34.6,45.5 34.6,45 C34.6,44.5 34.2,44.6 34.2,45 C34.2,45.2 34.2,45.3 34.2,45.8 C34.2,46.3 34.4,47 34.6,47.7 C34.9,48.4 34.6,48.4 34.4,48.5 C34.2,48.6 34,48.6 33.7,48.6 C33.3,48.6 33.2,48.5 33,48.5 C32.8,48.4 32.6,48.4 32.9,47.7 C33.2,47 33.3,46.3 33.3,45.8 C33.3,45.3 33.3,45.2 33.3,45 C33.3,44.6 32.9,44.5 32.9,45 C32.9,45.5 32.6,46.7 32.3,47.4 C32,48 31.5,47.8 31.3,47.7 C31.2,47.6 30.8,47.2 30.7,47 C30.6,46.8 30.5,46.6 30.8,46.3 C31.2,45.9 31.8,45.1 32.1,44.5 C32.4,43.9 32.1,43.7 31.8,44.2 C31.4,44.8 30.9,45.3 30.5,45.6 C30.3,45.8 30.2,45.8 30,45.6 C29.8,45.3 29.5,44.8 29.6,44.2 C29.7,43.6 29.9,43.6 30.2,43.6 C30.4,43.6 31.1,43.6 31.6,43.2 C32.2,42.6 32.8,41.8 33.1,40.3 C33.3,39.5 33.6,39.3 34,39.3 C34.4,39.3 34.8,39.5 34.9,40.3 C35.2,41.9 35.5,42.5 36.2,43.1 C36.7,43.5 37.3,43.5 37.7,43.5 C37.9,43.5 38.2,43.6 38.3,44.2 C38.4,44.8 38.1,45.3 37.9,45.6 C37.7,45.9 37.6,45.8 37.4,45.6 C37,45.3 36.5,44.7 36.1,44.2 C35.3,43.7 35.1,44 35.4,44.5 Z M31,40.6 C31.3,40.6 31.3,40.6 31.7,40.6 C32.1,40.6 32.1,40.7 32,41.1 C31.9,41.5 31.7,41.8 31.5,42.1 L31.5,42.1 C31.3,42.4 31.2,42.2 31.2,42 C31.1,41.7 31,41.4 30.9,41.1 C30.7,40.8 30.7,40.6 31,40.6 Z M35.4,40.6 C35.8,40.6 35.8,40.6 36,40.6 C36.3,40.6 36.3,40.9 36.2,41.2 C36.1,41.5 35.9,41.8 35.9,42.1 C35.8,42.4 35.8,42.5 35.6,42.2 L35.6,42.2 C35.4,41.9 35.3,41.6 35.2,41.2 C35,40.7 35.1,40.6 35.4,40.6 Z M21.9,31.7 C22.2,32.3 22.7,33 23.2,33.5 C23.5,33.8 23.4,34 23.3,34.2 C23.2,34.4 22.8,34.8 22.7,34.9 C22.6,35 22.1,35.3 21.7,34.6 C21.4,34 21.1,32.7 21.1,32.2 C21.1,31.7 20.7,31.8 20.7,32.2 C20.7,32.4 20.7,32.5 20.7,33 C20.7,33.5 20.9,34.2 21.1,34.9 C21.4,35.6 21.1,35.6 20.9,35.7 C20.7,35.8 20.5,35.9 20.2,35.9 C19.8,35.9 19.6,35.8 19.5,35.7 C19.3,35.6 19.1,35.6 19.3,34.9 C19.6,34.2 19.7,33.5 19.7,33 C19.7,32.5 19.7,32.4 19.7,32.2 C19.7,31.8 19.3,31.7 19.3,32.2 C19.3,32.7 19,33.9 18.7,34.6 C18.4,35.3 17.9,35 17.7,34.9 C17.6,34.8 17.2,34.4 17.1,34.2 C17,34 16.9,33.8 17.2,33.5 C17.6,33.1 18.2,32.3 18.5,31.7 C18.8,31.1 18.5,30.9 18.2,31.4 C17.8,32 17.3,32.5 16.9,32.8 C16.7,33 16.6,33 16.4,32.8 C16.2,32.5 15.9,32 16,31.4 C16.1,30.8 16.3,30.8 16.6,30.8 C16.8,30.8 17.5,30.8 18,30.4 C18.6,29.8 19.2,29 19.5,27.5 C19.7,26.7 20,26.5 20.4,26.5 C20.8,26.5 21.2,26.7 21.3,27.5 C21.6,29.1 21.9,29.7 22.6,30.3 C23.1,30.7 23.7,30.7 24.1,30.7 C24.3,30.7 24.6,30.8 24.7,31.4 C24.8,32 24.5,32.6 24.3,32.8 C24.1,33.1 24,33 23.8,32.8 C23.4,32.5 22.9,31.9 22.5,31.4 C21.9,30.9 21.7,31.2 21.9,31.7 Z M5.1,13.7 L6.1,13.7 L6.1,8.5 L5.1,8.5 C4.8,8.5 4.6,8.3 4.6,8 C4.6,7.7 4.8,7.5 5.1,7.5 L6.1,7.5 L6.1,5.4 L7.7,5.4 L6.9,6.2 L6.9,16.5 L12.1,16.5 C12.1,16.6 12.1,16.7 12.1,16.8 C12.1,16.9 12.1,17 12.1,17.1 L6,17.1 L6,14.8 L5,14.8 C4.7,14.8 4.5,14.6 4.5,14.3 C4.6,13.9 4.8,13.7 5.1,13.7 Z M15.6,5.4 L18.4,5.4 L18.4,15 L14.6,15 C14.1,15 13.8,15.1 13.6,15.3 L13.6,7.3 C13.6,6.3 14.5,5.4 15.6,5.4 Z M20.8,5.4 L20.8,7.5 L21.8,7.5 C22.1,7.5 22.3,7.7 22.3,8 C22.3,8.3 22.1,8.5 21.8,8.5 L20.8,8.5 L20.8,13.7 L21.8,13.7 C22.1,13.7 22.3,13.9 22.3,14.2 C22.3,14.5 22.1,14.7 21.8,14.7 L20.8,14.7 L20.8,17 L14.7,17 C14.7,16.9 14.7,16.8 14.7,16.7 C14.7,16.6 14.7,16.5 14.7,16.4 L19.9,16.4 L19.9,6.1 L19.1,5.3 L20.8,5.3 L20.8,5.4 Z M8.2,5.4 L8.2,15.1 L7.3,15.9 L7.3,6.3 L8.2,5.4 L8.2,5.4 Z M8.4,15.3 L12.3,15.3 C12.6,15.3 12.9,15.4 13,15.5 C12.7,15.6 12.5,15.8 12.3,16.1 L7.5,16.1 L8.4,15.3 Z M19.7,15.9 L18.8,15.1 L18.8,5.4 L18.9,5.4 L19.7,6.2 L19.7,15.9 Z M18.6,15.3 L19.4,16.1 L14.6,16.1 C14.5,15.8 14.2,15.6 13.9,15.5 C14,15.4 14.3,15.3 14.6,15.3 L18.6,15.3 Z M12.6,17.1 L12.6,17.1 C12.5,17 12.5,16.8 12.5,16.7 C12.5,16.2 12.9,15.7 13.5,15.7 C14,15.7 14.5,16.1 14.5,16.7 C14.5,16.8 14.5,17 14.4,17.1 L14.4,17.1 C14.2,17.4 13.9,17.7 13.5,17.7 C13.1,17.7 12.8,17.4 12.6,17.1 Z M13.3,15.3 C13.1,15.1 12.7,15 12.3,15 L8.5,15 L8.5,5.3 L11.3,5.3 C12.4,5.3 13.3,6.2 13.3,7.3 L13.3,15.3 Z M18.6,28.3 C18.5,28.7 18.3,29 18.1,29.3 L18.1,29.3 C17.9,29.6 17.8,29.4 17.8,29.2 C17.7,28.9 17.6,28.6 17.5,28.3 C17.4,28 17.4,27.7 17.7,27.7 C18,27.7 18,27.7 18.4,27.7 C18.6,27.8 18.7,27.9 18.6,28.3 Z M22,27.8 C22.4,27.8 22.4,27.8 22.6,27.8 C22.9,27.8 22.9,28.1 22.8,28.4 C22.7,28.7 22.5,29 22.5,29.3 C22.4,29.6 22.4,29.7 22.2,29.4 L22.2,29.4 C22,29.1 21.9,28.8 21.8,28.4 C21.6,27.9 21.7,27.8 22,27.8 Z M24.8,13.7 L25.8,13.7 L25.8,8.5 L24.8,8.5 C24.5,8.5 24.3,8.3 24.3,8 C24.3,7.7 24.5,7.5 24.8,7.5 L25.8,7.5 L25.8,5.4 L27.4,5.4 L26.6,6.2 L26.6,16.5 L31.8,16.5 C31.8,16.6 31.8,16.7 31.8,16.8 C31.8,16.9 31.8,17 31.8,17.1 L25.7,17.1 L25.7,14.8 L24.7,14.8 C24.4,14.8 24.2,14.6 24.2,14.3 C24.2,13.9 24.5,13.7 24.8,13.7 Z M40.8,7.4 C41.1,7.4 41.3,7.6 41.3,7.9 C41.3,8.2 41.1,8.4 40.8,8.4 L39.8,8.4 L39.8,13.6 L40.8,13.6 C41.1,13.6 41.3,13.8 41.3,14.1 C41.3,14.4 41.1,14.6 40.8,14.6 L39.8,14.6 L39.8,17 L34.4,17 C34.4,16.9 34.4,16.8 34.4,16.7 C34.4,16.6 34.4,16.5 34.4,16.4 L39,16.4 L39,6.1 L38.2,5.3 L39.8,5.3 L39.8,7.4 L40.8,7.4 L40.8,7.4 Z M27.8,5.4 L27.8,15.1 L26.9,15.9 L26.9,6.3 L27.8,5.4 L27.8,5.4 Z M28.1,15.3 L32,15.3 C32.3,15.3 32.6,15.4 32.7,15.5 C32.4,15.6 32.2,15.8 32,16.1 L27.2,16.1 L28.1,15.3 Z M38.6,15.9 L37.7,15.1 L37.7,5.4 L37.8,5.4 L38.6,6.2 L38.6,15.9 Z M37.5,15.3 L38.3,16.1 L34.2,16.1 C34.1,15.8 33.8,15.6 33.5,15.5 C33.6,15.4 33.9,15.3 34.2,15.3 L37.5,15.3 Z M32.3,17.1 C32.2,17 32.2,16.8 32.2,16.7 C32.2,16.2 32.6,15.7 33.2,15.7 C33.7,15.7 34.2,16.1 34.2,16.7 C34.2,16.8 34.2,17 34.1,17.1 L34.1,17.1 C33.9,17.4 33.6,17.7 33.2,17.7 C32.8,17.7 32.4,17.4 32.3,17.1 L32.3,17.1 Z M37.4,15 L34.3,15 C33.8,15 33.5,15.1 33.3,15.3 L33.3,7.3 C33.3,6.2 34.2,5.3 35.3,5.3 L37.4,5.3 L37.4,15 Z M33,15.3 C32.8,15.1 32.4,15 32,15 L28.2,15 L28.2,5.3 L31,5.3 C32.1,5.3 33,6.2 33,7.3 L33,15.3 Z M43.8,13.7 L44.8,13.7 L44.8,8.5 L43.8,8.5 C43.5,8.5 43.3,8.3 43.3,8 C43.3,7.7 43.5,7.5 43.8,7.5 L44.8,7.5 L44.8,5.4 L46.4,5.4 L45.6,6.2 L45.6,16.5 L51.5,16.5 C51.5,16.6 51.5,16.7 51.5,16.8 C51.5,16.9 51.5,17 51.5,17.1 L44.8,17.1 L44.8,14.8 L43.8,14.8 C43.5,14.8 43.3,14.6 43.3,14.3 C43.2,13.9 43.5,13.7 43.8,13.7 Z M52.6,6.9 L53,6.9 L53,6.8 C53.2,5.9 54,5.3 54.9,5.3 L58.7,5.3 L58.7,15 L54,15 C53.5,15 53.1,15.1 52.9,15.4 C52.9,15.4 52.8,15.4 52.8,15.4 C52.8,15.4 52.7,15.4 52.7,15.4 C52.5,15.2 52.1,15 51.6,15 L47.2,15 L47.2,5.3 L50.7,5.3 C51.6,5.3 52.4,5.9 52.6,6.8 L52.6,6.9 Z M61.1,5.4 L61.1,7.5 L62.1,7.5 C62.4,7.5 62.6,7.7 62.6,8 C62.6,8.3 62.4,8.5 62.1,8.5 L61.1,8.5 L61.1,13.7 L62.1,13.7 C62.4,13.7 62.6,13.9 62.6,14.2 C62.6,14.5 62.4,14.7 62.1,14.7 L61.1,14.7 L61.1,17 L54,17 C54,16.9 54,16.8 54,16.7 C54,16.6 54,16.5 54,16.4 L60.2,16.4 L60.2,6.1 L59.4,5.3 L61.1,5.3 L61.1,5.4 Z M46.8,5.4 L46.8,15.1 L45.9,15.9 L45.9,6.3 L46.8,5.4 L46.8,5.4 Z M47.1,15.3 L51.6,15.3 C51.9,15.3 52.2,15.4 52.3,15.5 C52,15.6 51.8,15.8 51.6,16.1 L46.2,16.1 L47.1,15.3 Z M51.9,17.1 C51.8,17 51.8,16.8 51.8,16.7 C51.8,16.2 52.2,15.7 52.8,15.7 C53.3,15.7 53.8,16.1 53.8,16.7 C53.8,16.8 53.8,17 53.7,17.1 L53.7,17.1 C53.5,17.4 53.2,17.7 52.8,17.7 C52.4,17.7 52.1,17.4 51.9,17.1 L51.9,17.1 Z M59.9,15.9 L59,15.1 L59,5.4 L59.1,5.4 L59.9,6.2 L59.9,15.9 L59.9,15.9 Z M58.8,15.3 L59.6,16.1 L53.9,16.1 C53.8,15.8 53.5,15.6 53.2,15.5 C53.3,15.4 53.6,15.3 53.9,15.3 L58.8,15.3 Z M45.3,28.1 C45.2,28.5 45,28.8 44.8,29.1 L44.8,29.1 C44.6,29.4 44.5,29.2 44.5,29 C44.4,28.7 44.3,28.4 44.2,28.1 C44.1,27.8 44.1,27.5 44.4,27.5 C44.7,27.5 44.7,27.5 45.1,27.5 C45.4,27.6 45.4,27.7 45.3,28.1 Z M48.7,27.6 C49.1,27.6 49.1,27.6 49.3,27.6 C49.6,27.6 49.6,27.9 49.5,28.2 C49.4,28.5 49.2,28.8 49.2,29.1 C49.2,29.4 49.1,29.5 48.9,29.2 L48.9,29.2 C48.7,28.9 48.6,28.6 48.5,28.2 C48.3,27.7 48.4,27.6 48.7,27.6 Z M13.2,57.5 C6.3,47.4 2.5,35.6 2.3,22.9 L5.1,22.9 C5.8,23.7 6.2,24.8 6.2,25.8 C6.2,26.4 6.1,26.9 5.8,27.4 C6.3,27.1 6.9,27 7.5,27 C9.4,27 11,28.6 11,30.5 C11,31.2 10.8,31.8 10.5,32.3 C11,32 11.6,31.8 12.3,31.8 C14.2,31.8 15.8,33.4 15.8,35.3 C15.8,35.9 15.6,36.5 15.4,37 C15.9,36.7 16.6,36.5 17.2,36.5 C19.1,36.5 20.7,38.1 20.7,40 C20.7,40.6 20.6,41.1 20.3,41.6 C20.8,41.4 21.3,41.2 21.9,41.2 C23.8,41.2 25.4,42.8 25.4,44.7 C25.4,46.6 23.8,48.2 21.9,48.2 C21.4,48.2 20.9,48.1 20.4,47.9 C20.6,48.4 20.8,48.9 20.8,49.5 C20.8,51.4 19.2,53 17.3,53 C16.7,53 16.1,52.8 15.6,52.6 C15.9,53.1 16.1,53.7 16.1,54.3 C16.2,55.8 14.9,57.3 13.2,57.5 Z M23.3,54.7 C23.2,55 23,55.3 23,55.6 C22.9,55.9 22.9,56 22.7,55.7 L22.7,55.7 C22.5,55.4 22.4,55.1 22.3,54.7 C22.2,54.3 22.2,54.2 22.6,54.2 C23,54.2 23,54.2 23.2,54.2 C23.3,54.1 23.4,54.3 23.3,54.7 Z M19,54.6 C18.9,55 18.7,55.3 18.5,55.6 L18.5,55.6 C18.3,55.9 18.2,55.7 18.2,55.5 C18.1,55.2 18,54.9 17.9,54.6 C17.8,54.3 17.8,54 18.1,54 C18.4,54 18.4,54 18.8,54 C19.1,54.1 19.1,54.2 19,54.6 Z M19.8,61.3 C20.1,60.6 20.2,59.9 20.2,59.4 C20.2,58.9 20.2,58.8 20.2,58.6 C20.2,58.2 19.8,58.1 19.8,58.6 C19.8,59.1 19.5,60.3 19.2,61 C18.9,61.6 18.4,61.3 18.2,61.3 C18.1,61.2 17.7,60.8 17.6,60.6 C17.5,60.4 17.4,60.2 17.7,59.9 C18.1,59.5 18.7,58.7 19,58.1 C19.3,57.5 19,57.3 18.7,57.8 C18.3,58.4 17.8,58.9 17.4,59.2 C17.2,59.4 17.1,59.4 16.9,59.2 C16.7,58.9 16.4,58.4 16.5,57.8 C16.6,57.2 16.8,57.2 17.1,57.2 C17.3,57.2 18,57.2 18.5,56.8 C19.1,56.2 19.7,55.4 20,53.9 C20.2,53.1 20.5,52.9 20.9,52.9 C21.3,52.9 21.7,53.1 21.8,53.9 C22.1,55.5 22.4,56.1 23.1,56.7 C23.6,57.1 24.2,57.1 24.6,57.1 C24.8,57.1 25.1,57.2 25.2,57.8 C25.3,58.4 25,59 24.8,59.2 C24.6,59.5 24.5,59.4 24.3,59.2 C23.9,58.9 23.4,58.3 23,57.8 C22.6,57.2 22.4,57.5 22.7,58.1 C23,58.7 23.5,59.4 24,59.9 C24.3,60.2 24.2,60.4 24.1,60.6 C24,60.8 23.6,61.2 23.5,61.3 C23.4,61.4 22.9,61.7 22.5,61 C22.2,60.3 21.9,59.1 21.9,58.6 C21.9,58.1 21.5,58.2 21.5,58.6 C21.5,58.8 21.5,58.9 21.5,59.4 C21.5,59.9 21.7,60.6 21.9,61.3 C22.2,62 21.9,62 21.7,62.1 C21.5,62.2 21.3,62.2 21,62.2 C20.6,62.2 20.4,62.1 20.3,62.1 C19.7,62 19.5,62 19.8,61.3 Z M33.6,77.1 C28.5,73.8 24,70.1 20.2,66 C20.2,66 20.2,65.9 20.2,65.9 C20.2,63.9 21.8,62.3 23.8,62.3 C24.8,62.3 25.6,62.7 26.3,63.3 C25.8,62.7 25.5,61.9 25.5,61.1 C25.5,59.2 27.1,57.6 29,57.6 C29.8,57.6 30.6,57.9 31.2,58.4 C30.8,57.8 30.6,57.2 30.6,56.4 C30.6,54.6 32,52.9 33.7,52.9 C36.8,52.9 37.5,54.6 37.5,56.4 C37.5,57.1 37.3,57.8 36.9,58.4 C37.5,57.9 38.3,57.6 39.1,57.6 C41,57.6 42.6,59.2 42.6,61.1 C42.6,61.9 42.3,62.7 41.8,63.3 C42.4,62.7 43.1,62.7 44,62.7 C45.8,62.7 47.2,64 47.5,65.7 C43.5,69.9 38.9,73.7 33.6,77.1 Z M50.6,59 C50.4,59.3 50.3,59.2 50.1,59 C49.7,58.7 49.2,58.1 48.8,57.6 C48.4,57 48.2,57.3 48.5,57.9 C48.8,58.5 49.3,59.2 49.8,59.7 C50.1,60 50,60.2 49.9,60.4 C49.8,60.6 49.4,61 49.3,61.1 C49.2,61.2 48.7,61.5 48.3,60.8 C48,60.2 47.7,58.9 47.7,58.4 C47.7,57.9 47.3,58 47.3,58.4 C47.3,58.6 47.3,58.7 47.3,59.2 C47.3,59.7 47.5,60.4 47.7,61.1 C48,61.8 47.7,61.8 47.5,61.9 C47.3,62 47.1,62 46.8,62 C46.4,62 46.2,61.9 46.1,61.9 C45.9,61.8 45.7,61.8 45.9,61.1 C46.2,60.4 46.3,59.7 46.3,59.2 C46.3,58.7 46.3,58.6 46.3,58.4 C46.3,58 45.9,57.9 45.9,58.4 C45.9,58.9 45.6,60.1 45.3,60.8 C45,61.4 44.5,61.2 44.3,61.1 C44.2,61 43.8,60.6 43.7,60.4 C43.6,60.2 43.5,60 43.8,59.7 C44.2,59.3 44.8,58.5 45.1,57.9 C45.4,57.3 45.1,57.1 44.8,57.6 C44.4,58.2 43.9,58.7 43.5,59 C43.3,59.2 43.2,59.2 43,59 C42.8,58.7 42.5,58.2 42.6,57.6 C42.7,57 42.9,57 43.2,57 C43.4,57 44.1,57 44.6,56.6 C45.2,56 45.8,55.2 46.1,53.7 C46.3,52.9 46.6,52.7 47,52.7 C47.4,52.7 47.8,52.9 47.9,53.7 C48.2,55.3 48.5,55.9 49.2,56.5 C49.7,56.9 50.3,56.9 50.7,56.9 C50.9,56.9 51.2,57 51.3,57.6 C51.2,58.1 50.8,58.7 50.6,59 Z M44.1,53.9 C44.4,53.9 44.4,53.9 44.8,53.9 C45.2,53.9 45.2,54 45.1,54.4 C45,54.8 44.8,55.1 44.6,55.4 L44.6,55.4 C44.4,55.7 44.3,55.5 44.3,55.3 C44.2,55 44.1,54.7 44,54.4 C43.8,54.1 43.8,53.9 44.1,53.9 Z M48.5,53.9 C48.9,53.9 48.9,53.9 49.1,53.9 C49.4,53.9 49.4,54.2 49.3,54.5 C49.2,54.8 49,55.1 49,55.4 C49,55.7 48.9,55.8 48.7,55.5 L48.7,55.5 C48.5,55.2 48.4,54.9 48.3,54.5 C48.1,54 48.1,53.9 48.5,53.9 Z M54.3,57.2 C52.7,56.9 51.3,55.7 51.3,54.1 C51.3,53.5 51.2,52.9 51.6,52.4 C51.1,52.7 50.7,52.6 50,52.6 C48.1,52.6 46.5,51 46.5,49.1 C46.5,48.5 46.5,48.2 46.8,47.7 C46.3,47.9 45.8,48 45.3,48 C43.4,48 41.8,46.4 41.8,44.5 C41.8,42.6 43.4,40.8 45.3,40.8 C45.9,40.8 46.3,40.8 46.8,41 C46.6,40.5 46.5,40.3 46.5,39.8 C46.5,37.9 48.1,35.9 50,35.9 C50.7,35.9 51.2,36 51.7,36.4 C51.4,35.9 51.4,35.8 51.4,35.2 C51.4,33.1 52.7,31.3 54.9,31.3 C55.6,31.3 56.2,31.5 56.7,31.8 C56.4,31.3 56.2,30.7 56.2,30 C56.2,28.1 57.8,26.5 59.7,26.5 C60.2,26.5 60.7,26.6 61.1,26.8 C61,26.5 60.9,25.8 60.9,25.4 C60.9,24.4 61.2,23.5 61.8,22.8 L64.8,22.8 C64.7,35.5 61,47.1 54.3,57.2 Z"></path>
                        <path d="M51.2,12.2 C51,12.6 51,12.6 50.9,12.7 C50.8,12.8 50.8,13 50.9,13 C51.1,13 51.1,13 51.3,13 C51.5,13 51.5,13 51.7,13 C51.8,13 51.9,12.9 51.8,12.7 C51.7,12.6 51.6,12.6 51.7,12.2 L51.9,11.5 C52,11.3 52.3,11.4 52.5,11.4 C52.7,11.4 53.2,11.3 53.2,11.6 L53.4,12.3 C53.5,12.7 53.4,12.7 53.3,12.8 C53.2,12.9 53.3,13.1 53.5,13.1 C53.7,13.1 53.8,13.1 54,13.1 C54.2,13.1 54.2,13.1 54.4,13.1 C54.6,13.1 54.6,12.9 54.5,12.8 C54.4,12.7 54.4,12.6 54.3,12.3 L53.2,8.3 C53.1,8 53,7.7 52.9,7.8 C52.7,7.9 52.4,7.9 52.4,8.1 L52.4,8.5 L51.2,12.2 Z M52.8,9.7 L53.1,10.8 C53.2,11.1 53.2,11.1 52.7,11.1 C52.1,11.1 52,11.1 52.1,10.8 L52.4,9.7 C52.6,9 52.7,9 52.8,9.7 Z"></path>
                        <path d="M51,9.1 C51.1,9.1 51.2,8.9 51.2,8.7 C51.2,8.6 51.2,8 51.2,7.9 C51.2,7.7 51.2,7.7 50.5,7.7 C50,7.7 49.7,7.7 49.5,7.7 C49.2,7.7 48.9,7.7 48.5,7.7 C47.9,7.7 47.8,7.7 47.8,7.9 C47.8,8 47.8,8.6 47.8,8.7 C47.8,8.8 47.8,9.1 48,9.1 C48.1,9.1 48.2,8.9 48.3,8.7 C48.5,8.1 48.8,8 48.9,8 C49.1,8 49.1,8.1 49.1,8.5 L49.1,12.2 C49.1,12.6 49.1,12.6 48.9,12.7 C48.8,12.8 48.8,13 49,13 C49.2,13 49.3,13 49.5,13 C49.7,13 49.8,13 50,13 C50.2,13 50.2,12.8 50.1,12.7 C50,12.6 49.9,12.6 49.9,12.2 L49.9,8.5 C49.9,8.2 49.9,8 50.1,8 C50.3,8 50.5,8.1 50.7,8.7 C50.8,9 50.8,9.1 51,9.1 Z"></path>
                        <path d="M55.3,13 C55.4,13 55.4,12.9 55.7,12.9 C56,12.9 56.3,13.1 56.6,13.1 C57.4,13.1 58.2,12.3 58.2,11.5 C58.2,10.8 58,10.6 57.3,10 C56.6,9.5 56,9.3 56,8.6 C56,8.4 56.1,7.8 56.6,7.8 C57.2,7.8 57.3,8.4 57.5,8.9 C57.6,9.3 57.9,9.1 57.9,8.9 C57.9,8.7 57.9,8 57.9,7.9 C57.9,7.8 57.7,7.6 57.7,7.7 C57.6,7.8 57.4,7.8 57.4,7.7 C57.2,7.6 57,7.5 56.6,7.5 C55.8,7.5 55.4,8.3 55.4,8.8 C55.4,9.3 55.6,9.7 56.4,10.3 C57.2,10.9 57.5,11.1 57.5,11.7 C57.5,12 57.4,12.7 56.8,12.7 C56.2,12.7 56,12.1 55.8,11.7 C55.6,11.2 55.3,11.1 55.3,11.6 C55.3,11.9 55.3,12.4 55.3,12.6 C55.1,12.9 55.2,13 55.3,13 Z"></path>
                    </g>
                </g>
            </g>
        </g>
    </g>
</svg>
