<svg version="1.1" id="Layer_1" xmlns="http://www.w3.org/2000/svg" xmlns:xlink="http://www.w3.org/1999/xlink" x="0px" y="0px"
     viewBox="0 0 577 79.7" style="enable-background:new 0 0 577 79.7;" xml:space="preserve">
<style type="text/css">
    .st0{fill:#FFFFFF;}
    .st1{fill:#A41034;}
</style>
<g>
    <g>
        <path class="st0" d="M84.9,17.5h3.3v4.7H93v-4.7h3.3v13H93v-5.5h-4.9v5.5h-3.3V17.5z"/>
        <path class="st0" d="M111.9,17.5h3.4l4.9,13h-3.5l-0.7-2.1h-4.8l-0.7,2.1h-3.5L111.9,17.5z M115.2,26.1l-1.6-5.4h0l-1.6,5.4H115.2
            z"/>
        <path class="st0" d="M131,17.5h6.5c2.9,0,4.7,1.4,4.7,4.3c0,1.7-1.1,3-2.7,3.5l3,5.2h-3.6l-2.6-4.7h-2.1v4.7H131V17.5z
             M134.2,23.5h3c1,0,1.7-0.5,1.7-1.8c0-1.2-0.7-1.7-1.7-1.8h-3V23.5z"/>
        <path class="st0" d="M152.5,17.5h3.5l2.7,9.3h0l2.7-9.3h3.4l-4.5,13h-3.5L152.5,17.5z"/>
        <path class="st0" d="M177.9,17.5h3.4l4.9,13h-3.5l-0.7-2.1h-4.8l-0.7,2.1h-3.5L177.9,17.5z M181.2,26.1l-1.6-5.4h0l-1.6,5.4H181.2
            z"/>
        <path class="st0" d="M197,17.5h6.5c2.9,0,4.7,1.4,4.7,4.3c0,1.7-1.1,3-2.7,3.5l3,5.2h-3.6l-2.6-4.7h-2.1v4.7H197V17.5z
             M200.2,23.5h3c1,0,1.7-0.5,1.7-1.8c0-1.2-0.7-1.7-1.7-1.8h-3V23.5z"/>
        <path class="st0" d="M219.5,17.5h5.1c4,0,6.7,1.9,6.7,6.5c0,4.6-2.7,6.5-6.7,6.5h-5.1V17.5z M222.8,27.8h1.9
            c2.4,0,3.3-1.7,3.3-3.8c0-2.1-0.9-3.8-3.3-3.8h-1.9V27.8z"/>
        <path class="st0" d="M262.1,17.5h6.4c2.6,0,4.4,0.9,4.4,3.4c0,1.7-1,2.5-2.7,2.9v0c1.8,0.1,3.2,1.1,3.2,3c0,2.7-2,3.7-5.3,3.7
            h-5.9V17.5z M265.3,28.1h2.7c1.7,0,2.2-0.7,2.2-1.5c0-1.1-0.4-1.6-1.6-1.6h-3.2V28.1z M265.3,22.6h2.7c1,0,1.7-0.4,1.7-1.4
            c0-1.1-0.6-1.4-1.7-1.4h-2.7V22.6z"/>
        <path class="st0" d="M295.9,26c0,3.6-3,4.9-5.5,4.9c-2.5,0-5.5-1.3-5.5-4.9v-8.5h3.3v8.2c0,1.5,0.6,2.5,2.3,2.5
            c1.7,0,2.3-1.1,2.3-2.5v-8.2h3.3V26z"/>
        <path class="st0" d="M309.1,26.7c1.1,1,2.2,1.6,3.8,1.6c0.9,0,2.4-0.4,2.4-1.5c0-0.7-0.5-1-1.5-1.2l-2.7-0.4
            c-2.4-0.4-3.7-1.7-3.7-3.6c0-3.2,2.5-4.5,5.3-4.5c2.2,0,4.3,0.9,5.7,2.5l-2.5,1.8c-0.9-1-2.1-1.7-3.5-1.7c-0.8,0-1.8,0.5-1.8,1.3
            c0,0.7,0.6,1,1.8,1.2l1.2,0.2c2.6,0.4,4.7,1.2,4.7,3.7c0,3.9-3.5,4.7-6,4.7c-2.2,0-4.1-0.7-5.9-2.7L309.1,26.7z"/>
        <path class="st0" d="M329.8,17.5h3.3v13h-3.3V17.5z"/>
        <path class="st0" d="M345.1,17.5h3.3l4.7,8.3h0v-8.3h3v13h-3.3l-4.8-8.2h0v8.2h-3V17.5z"/>
        <path class="st0" d="M368.1,30.6v-13h9.6V20h-6.3v2.4h5.9V25h-5.9V28h6.9v2.5H368.1z"/>
        <path class="st0" d="M390.7,26.7c1.1,1,2.2,1.6,3.8,1.6c0.9,0,2.4-0.4,2.4-1.5c0-0.7-0.5-1-1.5-1.2l-2.7-0.4
            c-2.4-0.4-3.7-1.7-3.7-3.6c0-3.2,2.5-4.5,5.3-4.5c2.2,0,4.3,0.9,5.7,2.5l-2.5,1.8c-0.9-1-2.1-1.7-3.5-1.7c-0.8,0-1.9,0.5-1.9,1.3
            c0,0.7,0.6,1,1.8,1.2l1.2,0.2c2.6,0.4,4.7,1.2,4.7,3.7c0,3.9-3.5,4.7-6,4.7c-2.2,0-4.1-0.7-5.9-2.7L390.7,26.7z"/>
        <path class="st0" d="M412.7,26.7c1.1,1,2.2,1.6,3.8,1.6c0.9,0,2.4-0.4,2.4-1.5c0-0.7-0.5-1-1.5-1.2l-2.7-0.4
            c-2.4-0.4-3.7-1.7-3.7-3.6c0-3.2,2.5-4.5,5.3-4.5c2.2,0,4.3,0.9,5.8,2.5l-2.5,1.8c-0.9-1-2.1-1.7-3.5-1.7c-0.8,0-1.9,0.5-1.9,1.3
            c0,0.7,0.6,1,1.8,1.2l1.2,0.2c2.6,0.4,4.7,1.2,4.7,3.7c0,3.9-3.5,4.7-6,4.7c-2.2,0-4.1-0.7-5.9-2.7L412.7,26.7z"/>
        <path class="st0" d="M454.2,26.7c1.1,1,2.2,1.6,3.8,1.6c0.9,0,2.4-0.4,2.4-1.5c0-0.7-0.5-1-1.5-1.2l-2.7-0.4
            c-2.4-0.4-3.7-1.7-3.7-3.6c0-3.2,2.5-4.5,5.3-4.5c2.2,0,4.3,0.9,5.8,2.5l-2.5,1.8c-0.9-1-2.1-1.7-3.5-1.7c-0.7,0-1.9,0.5-1.9,1.3
            c0,0.7,0.6,1,1.8,1.2l1.2,0.2c2.6,0.4,4.7,1.2,4.7,3.7c0,3.9-3.5,4.7-6,4.7c-2.2,0-4.1-0.7-5.9-2.7L454.2,26.7z"/>
        <path class="st0" d="M483.5,21.9c-0.5-1.2-1.6-2-2.7-2c-1.8,0-3.2,1.2-3.2,4.1c0,1.9,0.8,4.1,3.3,4.1c0.9,0,2.2-0.7,2.7-1.8
            l2.6,1.2c-1.1,2-3.1,3.3-5.3,3.3c-4.2,0-6.6-3.2-6.6-6.9c0-3.7,2.3-6.9,6.3-6.9c2.6,0,4.2,1.2,5.5,3.4L483.5,21.9z"/>
        <path class="st0" d="M497.3,17.5h3.3v4.7h4.9v-4.7h3.3v13h-3.3v-5.5h-4.9v5.5h-3.3V17.5z"/>
        <path class="st0" d="M526.6,30.9c-4.2,0-6.6-3.2-6.6-6.9c0-3.7,2.4-6.9,6.6-6.9c4.2,0,6.6,3.2,6.6,6.9
            C533.2,27.7,530.8,30.9,526.6,30.9z M526.6,19.9c-1.9,0-3.3,1.2-3.3,4.1c0,1.9,0.8,4.1,3.3,4.1c2.4,0,3.3-2.1,3.3-4.1
            C530,22,529,19.9,526.6,19.9z"/>
        <path class="st0" d="M550.7,30.9c-4.2,0-6.6-3.2-6.6-6.9c0-3.7,2.4-6.9,6.6-6.9c4.2,0,6.6,3.2,6.6,6.9
            C557.3,27.7,554.8,30.9,550.7,30.9z M550.7,19.9c-1.9,0-3.3,1.2-3.3,4.1c0,1.9,0.8,4.1,3.3,4.1c2.4,0,3.3-2.1,3.3-4.1
            C554,22,553.1,19.9,550.7,19.9z"/>
        <path class="st0" d="M568.7,17.5h3.3v10.3h5.1v2.7h-8.4V17.5z"/>
        <rect x="436.7" y="5.5" class="st0" width="1.6" height="36.7"/>
        <rect x="245.5" y="5.5" class="st0" width="1.6" height="36.7"/>
    </g>
    <g>
        <rect x="1.1" y="1.1" class="st0" width="65" height="19.7"/>
        <path class="st0" d="M66.2,21.5c0,25.1-13.5,44.7-32.5,56.8C14.7,66.2,1.2,46.7,1.2,21.5H66.2L66.2,21.5z"/>
        <g>
            <path class="st1" d="M14.7,12.6c-0.1,0.1-0.1,0.3,0.1,0.3c0.2,0,0.3,0,0.5,0l2,0c0.2,0,0.5,0.2,0.5-0.2c0-0.3,0-0.7,0-1
                c0-0.5-0.3-0.6-0.4,0c-0.1,0.4-0.2,0.8-0.9,0.8h-0.4c-0.2,0-0.2-0.1-0.3-0.2c0-0.4,0-1,0-1.8c0-0.2,0.1-0.2,0.3-0.2
                c0.2,0,0.3,0,0.3,0.2c0.1,0.2,0.5,0.6,0.5,0V9.7c0-0.6-0.3-0.2-0.4,0c-0.1,0.2-0.1,0.2-0.4,0.2c-0.2,0-0.3,0-0.3-0.3
                c0-0.3,0-0.9,0-1.6c0-0.1,0.1-0.2,0.2-0.2h0.4c0.7,0,0.7,0.4,0.8,0.9c0.1,0.4,0.4,0.3,0.4,0c0-0.3,0-0.7,0-1
                c0-0.3-0.3-0.2-0.5-0.2h-1.9c-0.2,0-0.3,0-0.5,0c-0.2,0-0.2,0.1-0.1,0.3c0.1,0.1,0.2,0.1,0.2,0.5V12
                C14.9,12.4,14.9,12.5,14.7,12.6z"/>
            <path class="st1" d="M12.3,7.6c-0.2,0-0.2,0-0.4,0c-0.2,0-0.2,0.1-0.1,0.3C11.9,7.9,12,7.9,12,8.3l-0.8,2.6
                c-0.1,0.3-0.3,0.4-0.4,0l-0.5-2.6c-0.1-0.4,0-0.4,0.1-0.5c0.1-0.1,0-0.3-0.2-0.3c-0.2,0-0.3,0-0.5,0c-0.2,0-0.3,0-0.5,0
                C9,7.5,9,7.7,9.2,7.8c0.1,0.1,0.2,0.1,0.3,0.5l0.9,4c0.1,0.3,0.1,0.6,0.4,0.6c0.2,0,0.3-0.2,0.4-0.6l1.2-4.1
                c0.2-0.4,0.2-0.4,0.3-0.5c0.1-0.1,0.1-0.3,0-0.3C12.5,7.6,12.5,7.6,12.3,7.6z"/>
            <path class="st1" d="M31.3,10.4c-0.1-0.1-0.1-0.1-0.1-0.2c0-0.1,0-0.2,0.2-0.2c0.4-0.2,0.8-0.6,0.8-1.2c0-0.8-0.5-1.3-1.8-1.3
                c-0.3,0-1,0-1.2,0c-0.2,0-0.4,0.1-0.3,0.3c0.1,0.1,0.2,0.2,0.2,0.4c0,0.2,0,3.5,0,3.9c0,0.4-0.1,0.4-0.2,0.5
                c-0.1,0.1-0.1,0.3,0.1,0.3c0.2,0,0.4,0,0.5,0c0.2,0,0.4,0,0.6,0c0.2,0,0.2-0.2,0.1-0.3c-0.1-0.1-0.2-0.1-0.2-0.5l0-1.8l0.3,0
                c0.1,0.2,1.1,2.3,1.2,2.4c0.1,0.1,0.1,0.1,0.1,0.1s0.6,0,0.7,0c0.3,0,0.3-0.2,0.2-0.2c-0.1-0.1-0.1-0.1-0.3-0.3
                C32.2,12.2,31.4,10.5,31.3,10.4z M30.4,9.9c-0.3,0-0.4-0.1-0.4-0.3l0-0.8V8.3c0-0.4,0.3-0.5,0.6-0.4c0.3,0,0.7,0.2,0.7,1
                C31.3,9.8,30.7,9.9,30.4,9.9z"/>
            <path class="st1" d="M35.1,7.9C35.2,8,35.3,8,35.3,8.4v3.7c0,0.4,0,0.4-0.2,0.5c-0.1,0.1-0.1,0.3,0.1,0.3c0.2,0,0.3,0,0.5,0
                c0.2,0,0.3,0,0.5,0c0.2,0,0.2-0.1,0.1-0.3c-0.1-0.1-0.2-0.1-0.2-0.5V8.4c0-0.4,0-0.4,0.2-0.5c0.1-0.1,0.1-0.3-0.1-0.3
                c-0.2,0-0.3,0-0.5,0c-0.2,0-0.3,0-0.5,0C35,7.6,35,7.8,35.1,7.9z"/>
            <path class="st1" d="M0,0v22.7h0.1c0.4,23.2,12,43.3,33,56.6l0.6,0.4l0.6-0.4c20.9-13.3,32.6-33.4,33-56.6h0.1V0H0z M48.7,31.3
                c0.3,0.6,0.8,1.3,1.3,1.8c0.3,0.3,0.2,0.5,0.1,0.7c-0.1,0.2-0.5,0.6-0.6,0.7c-0.1,0.1-0.6,0.4-1-0.3c-0.3-0.6-0.6-1.9-0.6-2.4
                c0-0.5-0.4-0.4-0.4,0c0,0.2,0,0.3,0,0.8c0,0.5,0.2,1.2,0.4,1.9c0.3,0.7,0,0.7-0.2,0.8c-0.2,0.1-0.4,0.1-0.7,0.1
                c-0.4,0-0.6-0.1-0.7-0.1c-0.2-0.1-0.4-0.1-0.2-0.8c0.3-0.7,0.4-1.4,0.4-1.9c0-0.5,0-0.6,0-0.8c0-0.4-0.4-0.5-0.4,0
                c0,0.5-0.3,1.7-0.6,2.4c-0.3,0.7-0.8,0.4-1,0.3c-0.1-0.1-0.5-0.5-0.6-0.7c-0.1-0.2-0.2-0.4,0.1-0.7c0.4-0.4,1-1.2,1.3-1.8
                c0.3-0.6,0-0.8-0.3-0.3c-0.4,0.6-0.9,1.1-1.3,1.4c-0.2,0.2-0.3,0.2-0.5,0c-0.2-0.3-0.5-0.8-0.4-1.4c0.1-0.6,0.3-0.6,0.6-0.6
                c0.2,0,0.9,0,1.4-0.4c0.6-0.6,1.2-1.4,1.5-2.9c0.2-0.8,0.5-1,0.9-1c0.4,0,0.8,0.2,0.9,1c0.3,1.6,0.6,2.2,1.3,2.8
                c0.5,0.4,1.1,0.4,1.5,0.4c0.2,0,0.5,0.1,0.6,0.7c0.1,0.6-0.2,1.2-0.4,1.4c-0.2,0.3-0.3,0.2-0.5,0c-0.4-0.3-0.9-0.9-1.3-1.4
                C48.6,30.5,48.4,30.8,48.7,31.3z M41.8,28c0,1.9-1.6,3.5-3.5,3.5c-0.6,0-1.2-0.2-1.7-0.5c0.4,0.5,0.6,1.2,0.6,1.9
                c0,1.9-1.6,3.5-3.5,3.5c-1.9,0-3.5-1.6-3.5-3.5c0-0.7,0.2-1.4,0.6-1.9c-0.6,0.4-1.3,0.7-2,0.7c-1.9,0-3.5-1.6-3.5-3.5
                c0-0.7,0.2-1.3,0.5-1.8c-0.6,0.4-1.2,0.6-1.9,0.6c-1.9,0-3.5-1.6-3.5-3.5c0-0.3,0-0.5,0.1-0.7h1.1v0h23.8v0h1.1
                c0.1,0.2,0.1,0.4,0.1,0.7c0,1.9-1.4,3.5-3.3,3.5c-0.7,0-1.1,0-1.7-0.4C41.7,26.9,41.8,27.4,41.8,28z M35.4,44.3
                c0.3,0.6,0.8,1.3,1.3,1.8c0.3,0.3,0.2,0.5,0.1,0.7c-0.1,0.2-0.5,0.6-0.6,0.7c-0.1,0.1-0.6,0.4-1-0.3c-0.3-0.6-0.6-1.9-0.6-2.4
                c0-0.5-0.4-0.4-0.4,0c0,0.2,0,0.3,0,0.8c0,0.5,0.2,1.2,0.4,1.9c0.3,0.7,0,0.7-0.2,0.8c-0.2,0.1-0.4,0.1-0.7,0.1
                c-0.4,0-0.5-0.1-0.7-0.1c-0.2-0.1-0.4-0.1-0.1-0.8c0.3-0.7,0.4-1.4,0.4-1.9c0-0.5,0-0.6,0-0.8c0-0.4-0.4-0.5-0.4,0
                c0,0.5-0.3,1.7-0.6,2.4c-0.3,0.6-0.8,0.4-1,0.3c-0.1-0.1-0.5-0.5-0.6-0.7c-0.1-0.2-0.2-0.4,0.1-0.7c0.4-0.4,1-1.2,1.3-1.8
                c0.3-0.6,0-0.8-0.3-0.3c-0.4,0.6-0.9,1.1-1.3,1.4c-0.2,0.2-0.3,0.2-0.5,0c-0.2-0.3-0.5-0.8-0.4-1.4c0.1-0.6,0.3-0.6,0.6-0.6
                c0.2,0,0.9,0,1.4-0.4c0.6-0.6,1.2-1.4,1.5-2.9c0.2-0.8,0.5-1,0.9-1c0.4,0,0.8,0.2,0.9,1c0.3,1.6,0.6,2.2,1.3,2.8
                c0.5,0.4,1.1,0.4,1.5,0.4c0.2,0,0.5,0.1,0.6,0.7c0.1,0.6-0.2,1.1-0.4,1.4c-0.2,0.3-0.3,0.2-0.5,0c-0.4-0.3-0.9-0.9-1.3-1.4
                C35.3,43.5,35.1,43.7,35.4,44.3z M31,40.4c0.3,0,0.3,0,0.7,0c0.4,0,0.4,0.1,0.3,0.5c-0.1,0.4-0.3,0.7-0.5,1l0,0
                c-0.2,0.3-0.3,0.1-0.3-0.1c-0.1-0.3-0.2-0.6-0.3-0.9C30.7,40.6,30.8,40.4,31,40.4z M35.5,40.4c0.4,0,0.4,0,0.6,0
                c0.3,0,0.3,0.3,0.2,0.6c-0.1,0.3-0.3,0.6-0.3,0.9c-0.1,0.3-0.1,0.4-0.3,0.1l0,0c-0.2-0.3-0.3-0.6-0.4-1
                C35.1,40.5,35.1,40.4,35.5,40.4z M22,31.5c0.3,0.6,0.8,1.3,1.3,1.8c0.3,0.3,0.2,0.5,0.1,0.7c-0.1,0.2-0.5,0.6-0.6,0.7
                c-0.1,0.1-0.6,0.4-1-0.3c-0.3-0.6-0.6-1.9-0.6-2.4c0-0.5-0.4-0.4-0.4,0c0,0.2,0,0.3,0,0.8c0,0.5,0.2,1.2,0.4,1.9
                c0.3,0.7,0,0.7-0.2,0.8c-0.2,0.1-0.4,0.2-0.7,0.2c-0.4,0-0.6-0.1-0.7-0.2c-0.2-0.1-0.4-0.1-0.2-0.8c0.3-0.7,0.4-1.4,0.4-1.9
                c0-0.5,0-0.6,0-0.8c0-0.4-0.4-0.5-0.4,0c0,0.5-0.3,1.7-0.6,2.4c-0.3,0.7-0.8,0.4-1,0.3c-0.1-0.1-0.5-0.5-0.6-0.7
                c-0.1-0.2-0.2-0.4,0.1-0.7c0.4-0.4,1-1.2,1.3-1.8c0.3-0.6,0-0.8-0.3-0.3c-0.4,0.6-0.9,1.1-1.3,1.4c-0.2,0.2-0.3,0.2-0.5,0
                c-0.2-0.3-0.5-0.8-0.4-1.4c0.1-0.6,0.3-0.6,0.6-0.6c0.2,0,0.9,0,1.4-0.4c0.6-0.6,1.2-1.4,1.5-2.9c0.2-0.8,0.5-1,0.9-1
                c0.4,0,0.8,0.2,0.9,1c0.3,1.6,0.6,2.2,1.3,2.8c0.5,0.4,1.1,0.4,1.5,0.4c0.2,0,0.5,0.1,0.6,0.7c0.1,0.6-0.2,1.2-0.4,1.4
                c-0.2,0.3-0.3,0.2-0.5,0c-0.4-0.3-0.9-0.9-1.3-1.4C21.9,30.7,21.7,31,22,31.5z M5.1,13.5h1V8.3h-1c-0.3,0-0.5-0.2-0.5-0.5
                c0-0.3,0.2-0.5,0.5-0.5h1V5.2h1.6L7,5.9v10.3h5.2c0,0.1,0,0.2,0,0.3c0,0.1,0,0.2,0,0.3H6.1v-2.3h-1c-0.3,0-0.5-0.2-0.5-0.5
                C4.6,13.7,4.8,13.5,5.1,13.5z M15.7,5.2h2.8v9.7h-3.8c-0.5,0-0.8,0.1-1,0.3v-8C13.7,6.1,14.6,5.2,15.7,5.2z M20.9,5.2v2.1h1
                c0.3,0,0.5,0.2,0.5,0.5c0,0.3-0.2,0.5-0.5,0.5h-1v5.2h1c0.3,0,0.5,0.2,0.5,0.5c0,0.3-0.2,0.5-0.5,0.5h-1v2.3h-6.1
                c0-0.1,0-0.2,0-0.3c0-0.1,0-0.2,0-0.3H20V5.9l-0.8-0.8H20.9z M8.2,5.2v9.7l-0.9,0.8V6.1L8.2,5.2L8.2,5.2z M8.4,15.1h3.9
                c0.3,0,0.6,0.1,0.7,0.2c-0.3,0.1-0.5,0.3-0.7,0.6H7.6L8.4,15.1z M19.7,15.7l-0.9-0.8V5.2h0.1l0.8,0.8V15.7z M18.6,15.1l0.8,0.8
                h-4.8c-0.1-0.3-0.4-0.5-0.7-0.6c0.1-0.1,0.4-0.2,0.7-0.2H18.6z M12.6,16.9L12.6,16.9c-0.1-0.1-0.1-0.3-0.1-0.4c0-0.5,0.4-1,1-1
                c0.5,0,1,0.4,1,1c0,0.1,0,0.3-0.1,0.4l0,0c-0.2,0.3-0.5,0.6-0.9,0.6C13.1,17.5,12.8,17.2,12.6,16.9z M13.3,15.1
                c-0.2-0.2-0.6-0.3-1-0.3H8.5V5.2h2.8c1.1,0,2,0.9,2,2V15.1z M18.6,28.1c-0.1,0.4-0.3,0.7-0.5,1l0,0c-0.2,0.3-0.3,0.1-0.3-0.1
                c-0.1-0.3-0.2-0.6-0.3-0.9c-0.1-0.3-0.1-0.6,0.2-0.6c0.3,0,0.3,0,0.7,0C18.7,27.6,18.7,27.7,18.6,28.1z M22,27.6
                c0.4,0,0.4,0,0.6,0c0.3,0,0.3,0.3,0.2,0.6c-0.1,0.3-0.3,0.6-0.3,0.9c-0.1,0.3-0.1,0.4-0.3,0.1l0,0c-0.2-0.3-0.3-0.6-0.4-1
                C21.6,27.7,21.7,27.6,22,27.6z M24.8,13.5h1V8.3h-1c-0.3,0-0.5-0.2-0.5-0.5c0-0.3,0.2-0.5,0.5-0.5h1V5.2h1.6l-0.8,0.8v10.3h5.2
                c0,0.1,0,0.2,0,0.3c0,0.1,0,0.2,0,0.3h-6.1v-2.3h-1c-0.3,0-0.5-0.2-0.5-0.5C24.2,13.7,24.5,13.5,24.8,13.5z M40.9,7.2
                c0.3,0,0.5,0.2,0.5,0.5c0,0.3-0.2,0.5-0.5,0.5h-1v5.2h1c0.3,0,0.5,0.2,0.5,0.5c0,0.3-0.2,0.5-0.5,0.5h-1v2.3h-5.4
                c0-0.1,0-0.2,0-0.3c0-0.1,0-0.2,0-0.3H39V5.9l-0.8-0.8h1.6v2.1H40.9z M27.9,5.2v9.7L27,15.7V6.1L27.9,5.2L27.9,5.2z M28.1,15.1
                H32c0.3,0,0.6,0.1,0.7,0.2c-0.3,0.1-0.5,0.3-0.7,0.6h-4.8L28.1,15.1z M38.7,15.7l-0.9-0.8V5.2h0.1l0.8,0.8V15.7z M37.5,15.1
                l0.8,0.8h-4.1c-0.1-0.3-0.4-0.5-0.7-0.6c0.1-0.1,0.4-0.2,0.7-0.2H37.5z M32.3,16.9c-0.1-0.1-0.1-0.3-0.1-0.4c0-0.5,0.4-1,1-1
                c0.5,0,1,0.4,1,1c0,0.1,0,0.3-0.1,0.4l0,0c-0.2,0.3-0.5,0.6-0.9,0.6C32.8,17.5,32.4,17.2,32.3,16.9L32.3,16.9z M37.4,14.8h-3.1
                c-0.5,0-0.8,0.1-1,0.3v-8c0-1.1,0.9-2,2-2h2.1V14.8z M33,15.1c-0.2-0.2-0.6-0.3-1-0.3h-3.8V5.2H31c1.1,0,2,0.9,2,2V15.1z
                 M43.8,13.5h1V8.3h-1c-0.3,0-0.5-0.2-0.5-0.5c0-0.3,0.2-0.5,0.5-0.5h1V5.2h1.6l-0.8,0.8v10.3h5.9c0,0.1,0,0.2,0,0.3
                c0,0.1,0,0.2,0,0.3h-6.7v-2.3h-1c-0.3,0-0.5-0.2-0.5-0.5C43.2,13.7,43.5,13.5,43.8,13.5z M52.6,6.7H53l0-0.1
                c0.2-0.9,1-1.5,1.9-1.5h3.8v9.7H54c-0.5,0-0.9,0.1-1.1,0.4c0,0-0.1,0-0.1,0c0,0-0.1,0-0.1,0c-0.2-0.2-0.6-0.4-1.1-0.4h-4.4V5.2
                h3.5c0.9,0,1.7,0.6,1.9,1.5L52.6,6.7z M61.1,5.2v2.1h1c0.3,0,0.5,0.2,0.5,0.5c0,0.3-0.2,0.5-0.5,0.5h-1v5.2h1
                c0.3,0,0.5,0.2,0.5,0.5c0,0.3-0.2,0.5-0.5,0.5h-1v2.3h-7.1c0-0.1,0-0.2,0-0.3c0-0.1,0-0.2,0-0.3h6.2V5.9l-0.8-0.8H61.1z
                 M46.9,5.2v9.7L46,15.7V6.1L46.9,5.2L46.9,5.2z M47.1,15.1h4.5c0.3,0,0.6,0.1,0.7,0.2c-0.3,0.1-0.5,0.3-0.7,0.6h-5.4L47.1,15.1z
                 M51.9,16.9c-0.1-0.1-0.1-0.3-0.1-0.4c0-0.5,0.4-1,1-1c0.5,0,1,0.4,1,1c0,0.1,0,0.3-0.1,0.4l0,0c-0.2,0.3-0.5,0.6-0.9,0.6
                C52.4,17.5,52.1,17.2,51.9,16.9L51.9,16.9z M60,15.7l-0.9-0.8V5.2h0.1L60,6.1V15.7z M58.8,15.1l0.8,0.8H54
                c-0.1-0.3-0.4-0.5-0.7-0.6c0.1-0.1,0.4-0.2,0.7-0.2H58.8z M45.3,27.9c-0.1,0.4-0.3,0.7-0.5,1l0,0c-0.2,0.3-0.3,0.1-0.3-0.1
                c-0.1-0.3-0.2-0.6-0.3-0.9c-0.1-0.3-0.1-0.6,0.2-0.6c0.3,0,0.3,0,0.7,0C45.4,27.4,45.4,27.5,45.3,27.9z M48.8,27.4
                c0.4,0,0.4,0,0.6,0c0.3,0,0.3,0.3,0.2,0.6c-0.1,0.3-0.3,0.6-0.3,0.9c0,0.3-0.1,0.4-0.3,0.1l0,0c-0.2-0.3-0.3-0.6-0.4-1
                C48.3,27.5,48.4,27.4,48.8,27.4z M13.3,57.3C6.4,47.2,2.6,35.4,2.4,22.7h2.8c0.7,0.8,1.1,1.9,1.1,2.9c0,0.6-0.1,1.1-0.4,1.6
                c0.5-0.3,1.1-0.4,1.7-0.4c1.9,0,3.5,1.6,3.5,3.5c0,0.7-0.2,1.3-0.5,1.8c0.5-0.3,1.1-0.5,1.8-0.5c1.9,0,3.5,1.6,3.5,3.5
                c0,0.6-0.2,1.2-0.4,1.7c0.5-0.3,1.2-0.5,1.8-0.5c1.9,0,3.5,1.6,3.5,3.5c0,0.6-0.1,1.1-0.4,1.6c0.5-0.2,1-0.4,1.6-0.4
                c1.9,0,3.5,1.6,3.5,3.5c0,1.9-1.6,3.5-3.5,3.5c-0.5,0-1-0.1-1.5-0.3c0.2,0.5,0.4,1,0.4,1.6c0,1.9-1.6,3.5-3.5,3.5
                c-0.6,0-1.2-0.2-1.7-0.4c0.3,0.5,0.5,1.1,0.5,1.7C16.2,55.6,14.9,57,13.3,57.3z M23.3,54.4c-0.1,0.3-0.3,0.6-0.3,0.9
                c-0.1,0.3-0.1,0.4-0.3,0.1l0,0c-0.2-0.3-0.3-0.6-0.4-1c-0.1-0.4-0.1-0.5,0.3-0.5c0.4,0,0.4,0,0.6,0
                C23.4,53.9,23.4,54.1,23.3,54.4z M19,54.4c-0.1,0.4-0.3,0.7-0.5,1l0,0c-0.2,0.3-0.3,0.1-0.3-0.1c-0.1-0.3-0.2-0.6-0.3-0.9
                c-0.1-0.3-0.1-0.6,0.2-0.6c0.3,0,0.3,0,0.7,0C19.1,53.9,19.1,54,19,54.4z M19.8,61.1c0.3-0.7,0.4-1.4,0.4-1.9c0-0.5,0-0.6,0-0.8
                c0-0.4-0.4-0.5-0.4,0c0,0.5-0.3,1.7-0.6,2.4c-0.3,0.6-0.8,0.3-1,0.3c-0.1-0.1-0.5-0.5-0.6-0.7c-0.1-0.2-0.2-0.4,0.1-0.7
                c0.4-0.4,1-1.2,1.3-1.8c0.3-0.6,0-0.8-0.3-0.3c-0.4,0.6-0.9,1.1-1.3,1.4c-0.2,0.2-0.3,0.2-0.5,0c-0.2-0.3-0.5-0.8-0.4-1.4
                c0.1-0.6,0.3-0.6,0.6-0.6c0.2,0,0.9,0,1.4-0.4c0.6-0.6,1.2-1.4,1.5-2.9c0.2-0.8,0.5-1,0.9-1c0.4,0,0.8,0.2,0.9,1
                c0.3,1.6,0.6,2.2,1.3,2.8c0.5,0.4,1.1,0.4,1.5,0.4c0.2,0,0.5,0.1,0.6,0.7c0.1,0.6-0.2,1.2-0.4,1.4c-0.2,0.3-0.3,0.2-0.5,0
                c-0.4-0.3-0.9-0.9-1.3-1.4c-0.4-0.6-0.6-0.3-0.3,0.3c0.3,0.6,0.8,1.3,1.3,1.8c0.3,0.3,0.2,0.5,0.1,0.7c-0.1,0.2-0.5,0.6-0.6,0.7
                c-0.1,0.1-0.6,0.4-1-0.3c-0.3-0.7-0.6-1.9-0.6-2.4c0-0.5-0.4-0.4-0.4,0c0,0.2,0,0.3,0,0.8c0,0.5,0.2,1.2,0.4,1.9
                c0.3,0.7,0,0.7-0.2,0.8C21.2,62,21,62,20.7,62c-0.4,0-0.6-0.1-0.7-0.1C19.8,61.8,19.5,61.8,19.8,61.1z M33.7,76.9
                c-5.1-3.3-9.6-7-13.4-11.1c0,0,0-0.1,0-0.1c0-2,1.6-3.6,3.6-3.6c1,0,1.8,0.4,2.5,1c-0.5-0.6-0.8-1.4-0.8-2.2
                c0-1.9,1.6-3.5,3.5-3.5c0.8,0,1.6,0.3,2.2,0.8c-0.4-0.6-0.6-1.2-0.6-2c0-1.8,1.4-3.5,3.1-3.5c3.1,0,3.8,1.7,3.8,3.5
                c0,0.7-0.2,1.4-0.6,2c0.6-0.5,1.4-0.8,2.2-0.8c1.9,0,3.5,1.6,3.5,3.5c0,0.8-0.3,1.6-0.8,2.2c0.6-0.6,1.3-0.6,2.2-0.6
                c1.8,0,3.2,1.3,3.5,3C43.5,69.7,38.9,73.5,33.7,76.9z M50.6,58.8c-0.2,0.3-0.3,0.2-0.5,0c-0.4-0.3-0.9-0.9-1.3-1.4
                c-0.4-0.6-0.6-0.3-0.3,0.3c0.3,0.6,0.8,1.3,1.3,1.8c0.3,0.3,0.2,0.5,0.1,0.7c-0.1,0.2-0.5,0.6-0.6,0.7c-0.1,0.1-0.6,0.4-1-0.3
                c-0.3-0.6-0.6-1.9-0.6-2.4c0-0.5-0.4-0.4-0.4,0c0,0.2,0,0.3,0,0.8c0,0.5,0.2,1.2,0.4,1.9c0.3,0.7,0,0.7-0.2,0.8
                c-0.2,0.1-0.4,0.1-0.7,0.1c-0.4,0-0.6-0.1-0.7-0.1c-0.2-0.1-0.4-0.1-0.2-0.8c0.3-0.7,0.4-1.4,0.4-1.9c0-0.5,0-0.6,0-0.8
                c0-0.4-0.4-0.5-0.4,0c0,0.5-0.3,1.7-0.6,2.4c-0.3,0.6-0.8,0.4-1,0.3c-0.1-0.1-0.5-0.5-0.6-0.7c-0.1-0.2-0.2-0.4,0.1-0.7
                c0.4-0.4,1-1.2,1.3-1.8c0.3-0.6,0-0.8-0.3-0.3c-0.4,0.6-0.9,1.1-1.3,1.4c-0.2,0.2-0.3,0.2-0.5,0c-0.2-0.3-0.5-0.8-0.4-1.4
                c0.1-0.6,0.3-0.6,0.6-0.6c0.2,0,0.9,0,1.4-0.4c0.6-0.6,1.2-1.4,1.5-2.9c0.2-0.8,0.5-1,0.9-1c0.4,0,0.8,0.2,0.9,1
                c0.3,1.6,0.6,2.2,1.3,2.8c0.5,0.4,1.1,0.4,1.5,0.4c0.2,0,0.5,0.1,0.6,0.7C51.2,57.9,50.8,58.5,50.6,58.8z M44.1,53.6
                c0.3,0,0.3,0,0.7,0c0.4,0,0.4,0.1,0.3,0.5c-0.1,0.4-0.3,0.7-0.5,1l0,0c-0.2,0.3-0.3,0.1-0.3-0.1c-0.1-0.3-0.2-0.6-0.3-0.9
                C43.8,53.9,43.8,53.6,44.1,53.6z M48.5,53.6c0.4,0,0.4,0,0.6,0c0.3,0,0.3,0.3,0.2,0.6c-0.1,0.3-0.3,0.6-0.3,0.9
                c0,0.3-0.1,0.4-0.3,0.1l0,0c-0.2-0.3-0.3-0.6-0.4-1C48.1,53.8,48.2,53.6,48.5,53.6z M54.3,57c-1.6-0.3-3-1.5-3-3.1
                c0-0.6-0.1-1.2,0.3-1.7c-0.5,0.3-0.9,0.2-1.6,0.2c-1.9,0-3.5-1.6-3.5-3.5c0-0.6,0-0.9,0.3-1.4c-0.5,0.2-1,0.3-1.5,0.3
                c-1.9,0-3.5-1.6-3.5-3.5c0-1.9,1.6-3.7,3.5-3.7c0.6,0,1,0,1.5,0.2c-0.2-0.5-0.3-0.7-0.3-1.2c0-1.9,1.6-3.9,3.5-3.9
                c0.7,0,1.2,0.1,1.7,0.5c-0.3-0.5-0.3-0.6-0.3-1.2c0-2.1,1.3-3.9,3.5-3.9c0.7,0,1.3,0.2,1.8,0.5c-0.3-0.5-0.5-1.1-0.5-1.8
                c0-1.9,1.6-3.5,3.5-3.5c0.5,0,1,0.1,1.4,0.3c-0.1-0.3-0.2-1-0.2-1.4c0-1,0.3-1.9,0.9-2.6h3C64.7,35.3,61.1,46.9,54.3,57z"/>
            <path class="st1" d="M51.3,12c-0.2,0.4-0.2,0.4-0.3,0.5c-0.1,0.1-0.1,0.3,0,0.3c0.2,0,0.2,0,0.4,0c0.2,0,0.2,0,0.4,0
                c0.1,0,0.2-0.1,0.1-0.3c-0.1-0.1-0.2-0.1-0.1-0.5l0.2-0.7c0.1-0.2,0.4-0.1,0.6-0.1c0.2,0,0.7-0.1,0.7,0.2l0.2,0.7
                c0.1,0.4,0,0.4-0.1,0.5c-0.1,0.1,0,0.3,0.2,0.3c0.2,0,0.3,0,0.5,0c0.2,0,0.2,0,0.4,0c0.2,0,0.2-0.2,0.1-0.3
                c-0.1-0.1-0.1-0.2-0.2-0.5l-1.1-4c-0.1-0.3-0.2-0.6-0.3-0.5c-0.2,0.1-0.5,0.1-0.5,0.3l0,0.4L51.3,12z M52.9,9.5l0.3,1.1
                c0.1,0.3,0.1,0.3-0.4,0.3c-0.6,0-0.7,0-0.6-0.3l0.3-1.1C52.6,8.8,52.7,8.8,52.9,9.5z"/>
            <path class="st1" d="M51,8.9c0.1,0,0.2-0.2,0.2-0.4c0-0.1,0-0.7,0-0.8c0-0.2,0-0.2-0.7-0.2c-0.5,0-0.8,0-1,0c-0.3,0-0.6,0-1,0
                c-0.6,0-0.7,0-0.7,0.2c0,0.1,0,0.7,0,0.8c0,0.1,0,0.4,0.2,0.4c0.1,0,0.2-0.2,0.3-0.4c0.2-0.6,0.5-0.7,0.6-0.7C49,7.8,49,8,49,8.3
                V12c0,0.4,0,0.4-0.2,0.5c-0.1,0.1-0.1,0.3,0.1,0.3c0.2,0,0.3,0,0.5,0c0.2,0,0.3,0,0.5,0c0.2,0,0.2-0.2,0.1-0.3
                c-0.1-0.1-0.2-0.1-0.2-0.5V8.3c0-0.3,0-0.5,0.2-0.5c0.2,0,0.4,0.1,0.6,0.7C50.8,8.8,50.9,8.9,51,8.9z"/>
            <path class="st1" d="M55.3,12.8c0.1,0,0.1-0.1,0.4-0.1c0.3,0,0.6,0.2,0.9,0.2c0.8,0,1.6-0.8,1.6-1.6c0-0.7-0.2-0.9-0.9-1.5
                C56.7,9.4,56,9.1,56,8.5c0-0.2,0.1-0.8,0.6-0.8c0.6,0,0.7,0.6,0.9,1.1c0.1,0.4,0.4,0.2,0.4,0c0-0.2,0-0.9,0-1
                c0-0.1-0.2-0.3-0.2-0.2c-0.1,0.1-0.3,0.1-0.3,0c-0.2-0.1-0.4-0.2-0.8-0.2c-0.8,0-1.2,0.8-1.2,1.3c0,0.5,0.2,0.9,1,1.5
                c0.8,0.6,1.1,0.8,1.1,1.4c0,0.3-0.1,1-0.7,1c-0.6,0-0.8-0.6-1-1c-0.2-0.5-0.5-0.6-0.5-0.1c0,0.3,0,0.8,0,1
                C55.1,12.7,55.2,12.8,55.3,12.8z"/>
        </g>
    </g>
</g>
</svg>